<svg xmlns="http://www.w3.org/2000/svg" width="136.292" height="123.774" viewBox="0 0 136.292 123.774">
  <g id="frills" transform="translate(-2898.698 -1102.863)">
    <g id="Group_172" data-name="Group 172" transform="translate(2898.698 1102.98)">
      <path id="Path_1262" data-name="Path 1262" d="M3037.1,1114.422l-.036,0c-4.187,3.137-5.448,7.583-3.058,9.486C3037.383,1120.893,3038.842,1116.828,3037.1,1114.422Z" transform="translate(-3008.281 -1112.425)" fill="#e0c468"/>
      <path id="Path_1263" data-name="Path 1263" d="M3002.938,1146.5l-.035.008c-3.828,3.592-4.436,8.292-1.665,10.021C3004.247,1153.112,3005.109,1148.818,3002.938,1146.5Z" transform="translate(-2981.087 -1138.634)" fill="#e0c468"/>
      <path id="Path_1264" data-name="Path 1264" d="M2973.833,1181.121l-.035.011c-3.417,4.038-3.344,8.942-.215,10.455C2976.176,1187.8,2976.416,1183.317,2973.833,1181.121Z" transform="translate(-2957.971 -1166.928)" fill="#e0c468"/>
      <path id="Path_1265" data-name="Path 1265" d="M2948.876,1219.408l-.035.015c-2.932,4.475-2.13,9.526,1.334,10.766C2952.29,1226.038,2951.866,1221.425,2948.876,1219.408Z" transform="translate(-2938.203 -1198.214)" fill="#e0c468"/>
      <path id="Path_1266" data-name="Path 1266" d="M2928.475,1261.181l-.034.019c-2.372,4.892-.8,10.02,2.969,10.933C2932.981,1267.649,2931.86,1262.962,2928.475,1261.181Z" transform="translate(-2922.085 -1232.349)" fill="#e0c468"/>
      <path id="Path_1267" data-name="Path 1267" d="M2913.045,1306.172l-.032.022c-1.737,5.281.641,10.405,4.669,10.935C2918.643,1312.352,2916.8,1307.661,2913.045,1306.172Z" transform="translate(-2909.925 -1269.113)" fill="#e0c468"/>
      <path id="Path_1268" data-name="Path 1268" d="M2902.994,1354.025l-.03.027c-1.024,5.625,2.186,10.653,6.42,10.745C2909.67,1359.778,2907.084,1355.161,2902.994,1354.025Z" transform="translate(-2902.027 -1308.216)" fill="#e0c468"/>
      <path id="Path_1269" data-name="Path 1269" d="M2898.736,1404.255l-.027.031c-.234,5.912,3.825,10.741,8.2,10.346C2906.451,1409.435,2903.115,1404.98,2898.736,1404.255Z" transform="translate(-2898.699 -1349.261)" fill="#e0c468"/>
      <path id="Path_1270" data-name="Path 1270" d="M2900.975,1456.273l-.023.035c.633,6.124,5.549,10.637,9.982,9.711C2909.673,1460.726,2905.587,1456.528,2900.975,1456.273Z" transform="translate(-2900.54 -1391.767)" fill="#e0c468"/>
      <path id="Path_1271" data-name="Path 1271" d="M2911.01,1509.281l-.018.039c1.578,6.246,7.348,10.319,11.748,8.825C2920.606,1512.851,2915.785,1509.013,2911.01,1509.281Z" transform="translate(-2908.744 -1435.072)" fill="#e0c468"/>
      <path id="Path_1272" data-name="Path 1272" d="M2930.14,1563.492c0,.014-.008.028-.012.042,2.626,6.247,9.253,9.72,13.5,7.62C2940.541,1565.986,2934.992,1562.635,2930.14,1563.492Z" transform="translate(-2924.381 -1479.272)" fill="#e0c468"/>
      <path id="Path_1273" data-name="Path 1273" d="M2957.748,1614.625c0,.016,0,.03-.006.045,3.726,6.121,11.165,8.868,15.154,6.166C2968.8,1615.922,2962.582,1613.157,2957.748,1614.625Z" transform="translate(-2946.945 -1520.843)" fill="#e0c468"/>
      <path id="Path_1274" data-name="Path 1274" d="M2994.829,1662.875c0,.016,0,.032,0,.047,4.9,5.839,13.112,7.7,16.7,4.408C3006.381,1662.825,2999.534,1660.766,2994.829,1662.875Z" transform="translate(-2977.251 -1559.913)" fill="#e0c468"/>
      <path id="Path_1275" data-name="Path 1275" d="M3041.868,1706.623c0,.016.007.032.01.048,6.144,5.377,15.081,6.2,18.128,2.338C3053.73,1705.091,3046.321,1703.86,3041.868,1706.623Z" transform="translate(-3015.689 -1595.12)" fill="#e0c468"/>
      <path id="Path_1276" data-name="Path 1276" d="M3052.3,1149.684c0,.009,0,.018-.005.028-3.344,2.822-7.719,4.228-10.414,2.631C3044.814,1148.893,3049.781,1147.892,3052.3,1149.684Z" transform="translate(-3015.699 -1140.525)" fill="#e0c468"/>
      <path id="Path_1277" data-name="Path 1277" d="M3021.961,1180c0,.009,0,.019,0,.029-2.982,3.168-7.268,5.008-10.3,3.62C3014.14,1179.834,3019.093,1178.378,3021.961,1180Z" transform="translate(-2991.001 -1165.479)" fill="#e0c468"/>
      <path id="Path_1278" data-name="Path 1278" d="M2997.1,1212.012c0,.01,0,.02,0,.03-2.585,3.5-6.732,5.78-10.084,4.642C2989.017,1212.522,2993.906,1210.591,2997.1,1212.012Z" transform="translate(-2970.872 -1191.792)" fill="#e0c468"/>
      <path id="Path_1279" data-name="Path 1279" d="M2977,1246.609c0,.01.006.019.009.029-2.134,3.808-6.078,6.553-9.716,5.72C2968.733,1247.879,2973.49,1245.443,2977,1246.609Z" transform="translate(-2954.75 -1220.204)" fill="#e0c468"/>
      <path id="Path_1280" data-name="Path 1280" d="M2962.115,1283.546l.013.029c-1.631,4.094-5.3,7.309-9.185,6.832C2953.77,1285.651,2958.323,1282.686,2962.115,1283.546Z" transform="translate(-2943.024 -1250.503)" fill="#e0c468"/>
      <path id="Path_1281" data-name="Path 1281" d="M2952.912,1322.5l.018.029c-1.077,4.346-4.392,8.031-8.477,7.963C2944.607,1325.5,2948.873,1321.993,2952.912,1322.5Z" transform="translate(-2936.087 -1282.412)" fill="#e0c468"/>
      <path id="Path_1282" data-name="Path 1282" d="M2949.592,1363.048l.023.028c-.475,4.553-3.352,8.7-7.576,9.085C2941.462,1367.011,2945.353,1362.954,2949.592,1363.048Z" transform="translate(-2934.067 -1315.587)" fill="#e0c468"/>
      <path id="Path_1283" data-name="Path 1283" d="M2952.007,1404.81l.027.026c.174,4.708-2.173,9.287-6.464,10.173C2944.209,1409.77,2947.628,1405.173,2952.007,1404.81Z" transform="translate(-2936.752 -1349.715)" fill="#e0c468"/>
      <path id="Path_1284" data-name="Path 1284" d="M2960.5,1447.451l.032.024c.868,4.8-.849,9.77-5.121,11.19C2953.2,1453.429,2956.044,1448.312,2960.5,1447.451Z" transform="translate(-2944.415 -1384.558)" fill="#e0c468"/>
      <path id="Path_1285" data-name="Path 1285" d="M2975.362,1490.353l.036.021c1.6,4.807.622,10.118-3.533,12.1C2968.774,1497.345,2970.922,1491.748,2975.362,1490.353Z" transform="translate(-2957.298 -1419.616)" fill="#e0c468"/>
      <path id="Path_1286" data-name="Path 1286" d="M2997.57,1534.016l.04.016c2.4,4.72,2.293,10.289-1.622,12.859C2991.938,1542.008,2993.243,1535.987,2997.57,1534.016Z" transform="translate(-2976.203 -1455.295)" fill="#e0c468"/>
      <path id="Path_1287" data-name="Path 1287" d="M3026.123,1575.1l.043.012c3.214,4.536,4.077,10.258.519,13.4C3021.656,1584,3022.011,1577.643,3026.123,1575.1Z" transform="translate(-3000.251 -1488.862)" fill="#e0c468"/>
      <path id="Path_1288" data-name="Path 1288" d="M3061.7,1613.923l.047.007c4.059,4.236,6.022,9.979,2.959,13.667C3058.666,1623.622,3057.929,1617.048,3061.7,1613.923Z" transform="translate(-3030.007 -1520.59)" fill="#e0c468"/>
      <path id="Path_1289" data-name="Path 1289" d="M3104.427,1649.44h.049c4.934,3.8,8.133,9.409,5.72,13.6C3103.1,1659.776,3101.124,1653.123,3104.427,1649.44Z" transform="translate(-3065.538 -1549.613)" fill="#e0c468"/>
      <path id="Path_1290" data-name="Path 1290" d="M3082.129,1103.527l-.01-.021c-4.237-.148-9.508,2.859-10.827,6.508C3075.277,1109.791,3079.686,1106.975,3082.129,1103.527Z" transform="translate(-3039.732 -1103.501)" fill="#e0c468"/>
      <path id="Path_1291" data-name="Path 1291" d="M2963.62,1135.873l-.444-.4c-46.812,38.032-23.661,109.214,43.513,117.811q.047-.274.094-.547C2940.149,1244.208,2917.185,1173.6,2963.62,1135.873Z" transform="translate(-2931.312 -1129.627)" fill="#e0c468"/>
    </g>
    <g id="Group_173" data-name="Group 173" transform="translate(2959.52 1102.863)">
      <path id="Path_1292" data-name="Path 1292" d="M3483.162,1113.788l.035,0c4.188,3.137,5.448,7.582,3.058,9.485C3482.875,1120.259,3481.415,1116.193,3483.162,1113.788Z" transform="translate(-3436.505 -1111.79)" fill="#e0c468"/>
      <path id="Path_1293" data-name="Path 1293" d="M3519.153,1145.86l.036.008c3.827,3.592,4.436,8.292,1.665,10.021C3517.845,1152.476,3516.983,1148.182,3519.153,1145.86Z" transform="translate(-3465.534 -1137.998)" fill="#e0c468"/>
      <path id="Path_1294" data-name="Path 1294" d="M3549.183,1180.487l.035.011c3.417,4.038,3.344,8.942.215,10.455C3546.839,1187.162,3546.6,1182.683,3549.183,1180.487Z" transform="translate(-3489.572 -1166.293)" fill="#e0c468"/>
      <path id="Path_1295" data-name="Path 1295" d="M3573.99,1218.771l.034.015c2.931,4.475,2.13,9.526-1.334,10.766C3570.575,1225.4,3571,1220.788,3573.99,1218.771Z" transform="translate(-3509.191 -1197.577)" fill="#e0c468"/>
      <path id="Path_1296" data-name="Path 1296" d="M3592.878,1260.545l.034.018c2.372,4.892.8,10.02-2.969,10.933C3588.372,1267.013,3589.493,1262.327,3592.878,1260.545Z" transform="translate(-3523.797 -1231.713)" fill="#e0c468"/>
      <path id="Path_1297" data-name="Path 1297" d="M3605.151,1305.537l.032.023c1.737,5.281-.641,10.4-4.669,10.934C3599.553,1311.716,3601.4,1307.026,3605.151,1305.537Z" transform="translate(-3532.8 -1268.477)" fill="#e0c468"/>
      <path id="Path_1298" data-name="Path 1298" d="M3610.122,1353.388l.03.027c1.024,5.625-2.186,10.653-6.42,10.746C3603.445,1359.141,3606.032,1354.524,3610.122,1353.388Z" transform="translate(-3535.617 -1307.578)" fill="#e0c468"/>
      <path id="Path_1299" data-name="Path 1299" d="M3607.344,1403.619l.027.031c.233,5.911-3.825,10.74-8.2,10.345C3599.628,1408.8,3602.964,1404.343,3607.344,1403.619Z" transform="translate(-3531.91 -1348.625)" fill="#e0c468"/>
      <path id="Path_1300" data-name="Path 1300" d="M3597.176,1455.636l.023.035c-.633,6.124-5.549,10.638-9.982,9.711C3588.479,1460.089,3592.563,1455.891,3597.176,1455.636Z" transform="translate(-3522.14 -1391.13)" fill="#e0c468"/>
      <path id="Path_1301" data-name="Path 1301" d="M3579.25,1508.646l.018.039c-1.578,6.246-7.348,10.318-11.747,8.825C3569.654,1512.216,3574.475,1508.378,3579.25,1508.646Z" transform="translate(-3506.045 -1434.436)" fill="#e0c468"/>
      <path id="Path_1302" data-name="Path 1302" d="M3552.269,1562.856c0,.014.008.028.012.043-2.627,6.247-9.253,9.719-13.5,7.62C3541.869,1565.35,3547.416,1562,3552.269,1562.856Z" transform="translate(-3482.557 -1478.635)" fill="#e0c468"/>
      <path id="Path_1303" data-name="Path 1303" d="M3517.292,1613.99c0,.015,0,.03.005.045-3.725,6.121-11.164,8.867-15.154,6.165C3506.236,1615.286,3512.458,1612.522,3517.292,1613.99Z" transform="translate(-3452.622 -1520.207)" fill="#e0c468"/>
      <path id="Path_1304" data-name="Path 1304" d="M3473.271,1662.239c0,.016,0,.031,0,.047-4.9,5.84-13.112,7.7-16.706,4.409C3461.72,1662.189,3468.566,1660.13,3473.271,1662.239Z" transform="translate(-3415.378 -1559.276)" fill="#e0c468"/>
      <path id="Path_1305" data-name="Path 1305" d="M3419.837,1705.988l-.01.048c-6.144,5.377-15.081,6.2-18.127,2.337C3407.974,1704.456,3415.384,1703.225,3419.837,1705.988Z" transform="translate(-3370.545 -1594.484)" fill="#e0c468"/>
      <path id="Path_1306" data-name="Path 1306" d="M3443.9,1149.047c0,.009,0,.018.005.027,3.344,2.822,7.719,4.227,10.414,2.63C3451.382,1148.255,3446.416,1147.255,3443.9,1149.047Z" transform="translate(-3405.026 -1139.888)" fill="#e0c468"/>
      <path id="Path_1307" data-name="Path 1307" d="M3474.748,1179.368v.029c2.982,3.169,7.268,5.008,10.3,3.62C3482.568,1179.2,3477.616,1177.743,3474.748,1179.368Z" transform="translate(-3430.237 -1164.842)" fill="#e0c468"/>
      <path id="Path_1308" data-name="Path 1308" d="M3500.593,1211.375c0,.01,0,.02,0,.03,2.586,3.5,6.733,5.78,10.084,4.643C3508.679,1211.885,3503.791,1209.953,3500.593,1211.375Z" transform="translate(-3451.352 -1191.154)" fill="#e0c468"/>
      <path id="Path_1309" data-name="Path 1309" d="M3522.344,1245.973l-.009.03c2.134,3.808,6.078,6.552,9.715,5.72C3530.61,1247.243,3525.853,1244.807,3522.344,1245.973Z" transform="translate(-3469.122 -1219.568)" fill="#e0c468"/>
      <path id="Path_1310" data-name="Path 1310" d="M3539.6,1282.91l-.013.03c1.631,4.094,5.3,7.309,9.185,6.832C3547.942,1285.016,3543.39,1282.05,3539.6,1282.91Z" transform="translate(-3483.218 -1249.867)" fill="#e0c468"/>
      <path id="Path_1311" data-name="Path 1311" d="M3551.964,1321.859l-.018.029c1.078,4.346,4.392,8.032,8.478,7.963C3560.269,1324.866,3556,1321.357,3551.964,1321.859Z" transform="translate(-3493.318 -1281.776)" fill="#e0c468"/>
      <path id="Path_1312" data-name="Path 1312" d="M3559.058,1362.414l-.023.027c.475,4.554,3.352,8.7,7.576,9.086C3567.187,1366.377,3563.295,1362.32,3559.058,1362.414Z" transform="translate(-3499.111 -1314.953)" fill="#e0c468"/>
      <path id="Path_1313" data-name="Path 1313" d="M3560.472,1404.175l-.027.026c-.174,4.708,2.172,9.288,6.463,10.174C3568.271,1409.135,3564.852,1404.537,3560.472,1404.175Z" transform="translate(-3500.256 -1349.079)" fill="#e0c468"/>
      <path id="Path_1314" data-name="Path 1314" d="M3555,1446.814l-.031.024c-.869,4.8.849,9.77,5.121,11.19C3562.29,1452.792,3559.449,1447.675,3555,1446.814Z" transform="translate(-3495.608 -1383.921)" fill="#e0c468"/>
      <path id="Path_1315" data-name="Path 1315" d="M3541.847,1489.717l-.036.021c-1.6,4.807-.623,10.117,3.533,12.1C3548.434,1496.709,3546.287,1491.113,3541.847,1489.717Z" transform="translate(-3484.44 -1418.979)" fill="#e0c468"/>
      <path id="Path_1316" data-name="Path 1316" d="M3519.866,1533.379l-.04.017c-2.4,4.72-2.293,10.29,1.622,12.859C3525.5,1541.372,3524.193,1535.35,3519.866,1533.379Z" transform="translate(-3465.762 -1454.657)" fill="#e0c468"/>
      <path id="Path_1317" data-name="Path 1317" d="M3489.755,1574.462l-.043.011c-3.214,4.536-4.077,10.258-.519,13.4C3494.221,1583.362,3493.866,1577.009,3489.755,1574.462Z" transform="translate(-3440.155 -1488.228)" fill="#e0c468"/>
      <path id="Path_1318" data-name="Path 1318" d="M3450.6,1613.288l-.047.007c-4.059,4.236-6.022,9.979-2.959,13.666C3453.634,1622.988,3454.371,1616.413,3450.6,1613.288Z" transform="translate(-3406.821 -1519.955)" fill="#e0c468"/>
      <path id="Path_1319" data-name="Path 1319" d="M3401.931,1648.8h-.049c-4.934,3.8-8.133,9.409-5.721,13.6C3403.258,1659.139,3405.234,1652.486,3401.931,1648.8Z" transform="translate(-3365.348 -1548.975)" fill="#e0c468"/>
      <path id="Path_1320" data-name="Path 1320" d="M3412.2,1102.89l.01-.022c4.236-.148,9.508,2.859,10.827,6.508C3419.05,1109.153,3414.641,1106.337,3412.2,1102.89Z" transform="translate(-3379.124 -1102.863)" fill="#e0c468"/>
      <path id="Path_1321" data-name="Path 1321" d="M3274.484,1135.237l.444-.4c46.812,38.032,23.66,109.214-43.513,117.811q-.047-.273-.094-.547C3297.954,1243.573,3320.919,1172.963,3274.484,1135.237Z" transform="translate(-3231.321 -1128.991)" fill="#e0c468"/>
    </g>
  </g>
</svg>
